<?xml version="1.0" encoding="iso-8859-1"?>
<!-- Generator: Adobe Illustrator 16.0.0, SVG Export Plug-In . SVG Version: 6.00 Build 0)  -->
<!DOCTYPE svg PUBLIC "-//W3C//DTD SVG 1.1//EN" "http://www.w3.org/Graphics/SVG/1.1/DTD/svg11.dtd">
<svg version="1.1" id="Capa_1" xmlns="http://www.w3.org/2000/svg" xmlns:xlink="http://www.w3.org/1999/xlink" x="0px" y="0px"
	 width="160.543px" height="160.543px" viewBox="0 0 160.543 160.543" style="enable-background:new 0 0 160.543 160.543;"
	 xml:space="preserve">
<g>
	<g>
		<path d="M143.997,135.246c-6.02-10.791-9.566-19.475-10.549-25.806c-2.837-18.342-8.948-29.604-13.413-37.823
			c-1.275-2.342-2.479-4.55-3.442-6.628c-0.597-1.289-1.335-2.857-2.184-4.641c-2.966-6.273-7.023-14.875-10.675-23.404
			c-0.952-2.229-1.817-4.473-2.638-6.613c-3.479-9.015-8.092-16.949-13.544-15.857c-1.165,0.235-2.084,0.752-2.603,1.71
			c-1.857,3.368,1.149,10.405,6.304,21.601c3.096,6.72,6.953,15.089,5.995,17.409l-0.153,0.304
			c-1.619-0.399-5.729-9.341-8.736-15.869l-3.185-6.897C76.577,14.178,69.566,0,64.149,0l-1.305,0.277
			c-1.475,0.67-2.479,1.792-2.992,3.357c-2.299,6.998,6.275,22.232,13.821,35.658c4.668,8.293,10.477,18.607,9.224,20.804
			c-1.585,0-7.699-6.962-18.042-26.172C55.958,17.445,46.801,2.197,40.176,2.197c-1.242,0-2.342,0.511-3.259,1.502
			c-4.707,5.083,3.574,18.597,12.342,32.92c1.454,2.375,2.893,4.711,4.219,6.955C64.99,62.972,65.417,68.072,65.058,69.357
			l-0.18,0.315l-0.761,0.208c-2.662,0-6.422-6.801-9.74-12.799l-2.353-4.274c-8.097-14.739-14.778-26.021-20.778-26.021
			c-1.379,0-2.61,0.582-3.676,1.748c-4.707,5.138,3.037,18.189,12.013,33.305c4.069,6.854,8.267,13.923,11.242,20.263l0.398,0.829
			c3.484,7.379,8.746,18.548,7.537,25.219c-0.185,1.028-0.677,1.964-3.026,1.964c-2.577,0-6.282-1.165-9.857-2.309
			c-3.621-1.149-7.031-2.228-9.642-2.288h-0.411c-5.647,0-14.479,2.633-18.121,6.421c-1.165,1.209-1.732,2.46-1.688,3.73
			c0.089,2.341,3.817,3.55,12.985,6.303c3.978,1.204,8.486,2.561,12.891,4.181c8.292,3.065,16.02,7.578,20.173,10.004
			c0.873,0.524,1.587,0.93,2.089,1.202c6.903,3.822,13.084,5.353,18.051,6.589c2.069,0.521,3.848,0.96,5.396,1.493
			c4.049,1.396,8.694,6.036,14.218,14.223l0.594,0.881l42.115-24.312L143.997,135.246z M88.456,24.887
			c-0.569-1.39-3.309-5.554-0.06-7.42c3.25-1.86,5.165,2.304,6.363,4.276C95.96,23.716,89.475,27.385,88.456,24.887z M63.209,11.453
			c-0.829-1.6-2.914-6.117,0.336-7.984c3.248-1.854,5.989,2.712,6.841,4.047C71.786,9.702,64.61,14.167,63.209,11.453z
			 M39.046,13.376c-0.79-1.373-2.981-5.794,0.096-7.94c3.07-2.139,6.321,1.529,7.352,3.21
			C48.153,11.366,41.059,16.884,39.046,13.376z M30.114,37.896c-0.312-0.936-3.194-5.743-0.117-7.881
			c3.078-2.148,6.275,2.53,7.121,3.594C38.519,35.352,31.081,40.783,30.114,37.896z M30.023,119.837
			c-1.91-0.416-10.936-2.46-10.936-4.179c0-3.755,12.32-2.553,13.347-2.125C33.459,113.971,31.942,120.264,30.023,119.837z"/>
	</g>
</g>
<g>
</g>
<g>
</g>
<g>
</g>
<g>
</g>
<g>
</g>
<g>
</g>
<g>
</g>
<g>
</g>
<g>
</g>
<g>
</g>
<g>
</g>
<g>
</g>
<g>
</g>
<g>
</g>
<g>
</g>
</svg>
